<svg width="89" height="111" viewBox="0 0 89 111" fill="none" xmlns="http://www.w3.org/2000/svg">
<path d="M44.692 39.3107H24.4652V21.1582H79.4842H80.9842V19.6582V3.5V2H79.4842H5.93605H4.43605V3.5V56.6751V58.1751H5.93605H44.692C51.7686 58.1751 57.1753 59.7166 60.7738 62.3795C64.3143 64.9994 66.24 68.7999 66.24 73.7147C66.24 78.6986 64.2432 82.6572 60.6285 85.4114C56.9681 88.2004 51.5251 89.8418 44.5452 89.8418C36.9829 89.8418 31.2532 88.4666 27.4625 86.0391C23.7552 83.6649 21.8227 80.2435 21.8227 75.7712V74.2712H20.3227H3H1.5V75.7712C1.5 86.2557 5.50051 94.6488 13.0286 100.376C20.5003 106.06 31.2875 109 44.692 109C57.0723 109 67.564 105.546 74.9904 99.4015C82.4404 93.2375 86.7095 84.4389 86.7095 74.0085C86.7095 63.1905 82.809 54.4413 75.4812 48.428C68.193 42.4473 57.6849 39.3107 44.692 39.3107Z" stroke="#5BC3CF" stroke-width="3"/>
</svg>
