<svg width="88" height="111" viewBox="0 0 88 111" fill="none" xmlns="http://www.w3.org/2000/svg">
<path d="M2.08635 34.2137L1.99048 35.804H3.58363H21.0925H22.5466L22.5918 34.3506C22.7203 30.2157 24.8139 26.7935 28.6477 24.347C32.5267 21.8715 38.1998 20.402 45.3132 20.402C52.2056 20.402 57.4726 21.8704 60.9756 24.4074C64.4171 26.8998 66.2829 30.5094 66.2829 35.1841C66.2829 39.3018 64.2288 42.788 60.4575 45.3045C56.6494 47.8454 51.0918 49.3794 44.2918 49.3794C31.0448 49.3794 20.3631 52.24 12.9553 57.7629C5.48842 63.3299 1.5 71.4923 1.5 81.6834V107.5V109H3H85H86.5V107.5V91.5113V90.0113H85H21.4253V81.6834C21.4253 77.4048 23.4176 74.014 27.2329 71.6229C31.1185 69.1878 36.9321 67.7814 44.4377 67.7814C57.8132 67.7814 68.3331 65.038 75.539 59.4743C82.8101 53.8603 86.5 45.5364 86.5 34.8907C86.5 24.7784 82.5177 16.4866 75.2796 10.7582C68.0813 5.06122 57.7961 2 45.3132 2C32.5565 2 22.069 4.90591 14.5839 10.4345C7.05746 15.9936 2.69521 24.1138 2.08635 34.2137Z" stroke="#5BC3CF" stroke-width="3"/>
</svg>
