<svg width="90" height="111" viewBox="0 0 90 111" fill="none" xmlns="http://www.w3.org/2000/svg">
<path d="M74.2149 54.1396C81.2728 50.1493 85.9738 42.056 85.9738 33.1111C85.9738 23.7898 81.6752 15.955 74.3479 10.4945C67.0514 5.05696 56.8024 2 44.83 2C32.4426 2 22.0818 4.93827 14.7757 10.2884C7.42813 15.669 3.24899 23.4413 3.24899 32.8222V34.3222H4.74899H21.6559H23.1559V32.8222C23.1559 29.3556 25.0582 26.3615 28.7461 24.1619C32.4684 21.9418 37.9339 20.6 44.6843 20.6C51.3468 20.6 56.7687 22.0082 60.4713 24.31C64.1434 26.5928 66.0669 29.6971 66.0669 33.2556C66.0669 36.9627 64.1401 40.0205 60.4568 42.2239C56.7233 44.4572 51.2263 45.7667 44.3928 45.7667H28.2146H26.7146V47.2667V61.2778V62.7778H28.2146H46.2875C53.4204 62.7778 58.8874 64.1263 62.5226 66.4896C66.0814 68.8031 67.9617 72.1282 67.9617 76.4445C67.9617 80.6923 65.853 84.1101 62.0117 86.5326C58.1189 88.9877 52.4504 90.4 45.5588 90.4C38.4688 90.4 32.3685 88.851 28.0954 86.3609C23.8136 83.8658 21.5527 80.5627 21.5527 77.0222V75.5222H20.0527H3H1.5V77.0222C1.5 86.762 5.82283 94.8227 13.4066 100.403C20.9494 105.952 31.6389 109 44.3928 109C57.5027 109 68.4441 105.956 76.1514 100.393C83.9028 94.797 88.3058 86.6977 88.3058 76.8778C88.3058 66.5784 83.0505 58.461 74.2149 54.1396Z" stroke="#5BC3CF" stroke-width="3"/>
</svg>
