<svg width="90" height="111" viewBox="0 0 90 111" fill="none" xmlns="http://www.w3.org/2000/svg">
<path d="M46.971 40.1717C37.4212 40.1717 28.6561 42.7953 21.4561 47.7577V38.6468C21.4561 33.1963 23.6916 28.7704 27.6207 25.6723C31.5833 22.5477 37.3704 20.7008 44.5282 20.7008C51.1006 20.7008 56.6078 22.0357 60.4693 24.2476C64.3176 26.4519 66.4157 29.4396 66.5964 32.821L66.6723 34.241H68.0943H84.763H86.2994L86.2626 32.7051C86.0357 23.2277 81.8137 15.4832 74.433 10.1524C67.0969 4.85388 56.7345 2 44.2408 2C31.5464 2 20.868 5.4945 13.335 11.8029C5.77683 18.1324 1.5 27.2036 1.5 38.0706V74.2258C1.5 84.7586 5.83401 93.5124 13.4904 99.5993C21.114 105.66 31.926 109 44.8155 109C57.2959 109 67.993 105.541 75.6036 99.4719C83.2378 93.3837 87.7 84.7125 87.7 74.5138C87.7 64.3486 83.5171 55.7166 76.2784 49.6508C69.0602 43.6022 58.8901 40.1717 46.971 40.1717ZM44.6718 90.4432C37.4097 90.4432 31.5638 88.7606 27.5783 85.9307C23.6359 83.1314 21.4561 79.1805 21.4561 74.3698C21.4561 69.5565 23.6385 65.5672 27.585 62.7321C31.5715 59.8682 37.4159 58.1524 44.6718 58.1524C51.8532 58.1524 57.6613 59.8669 61.6305 62.7303C65.5607 65.5656 67.7439 69.5558 67.7439 74.3698C67.7439 79.1048 65.567 83.0599 61.6339 85.8808C57.6631 88.7287 51.853 90.4432 44.6718 90.4432Z" stroke="#5BC3CF" stroke-width="3"/>
</svg>
