<svg width="22" height="26" viewBox="0 0 22 26" fill="none" xmlns="http://www.w3.org/2000/svg">
<mask id="path-1-inside-1_1124_6395" fill="white">
<path d="M17.867 21.8714C17.8175 22.3302 17.8175 22.7206 17.7384 23.1013C17.4419 24.5068 16.2259 25.4927 14.7727 25.4927C11.0358 25.5024 7.2891 25.5024 3.55225 25.4927C1.85188 25.4829 0.507414 24.1652 0.507414 22.4766C0.497529 17.3716 0.497529 12.257 0.507414 7.15202C0.507414 5.49268 1.81234 4.20426 3.50282 4.13593C3.70053 4.12617 3.89826 4.13593 4.17506 4.13593C4.17506 3.91143 4.17506 3.70645 4.17506 3.51123C4.20472 1.87141 5.5393 0.524402 7.20013 0.514641C10.9567 0.49512 14.7134 0.49512 18.47 0.514641C20.1209 0.524402 21.4852 1.83237 21.4852 3.45267C21.5049 8.6064 21.5049 13.7699 21.4852 18.9236C21.4753 20.5439 20.1407 21.8128 18.47 21.8714C18.2723 21.8812 18.0844 21.8714 17.867 21.8714ZM11.2731 4.98512C11.1248 4.9656 11.0457 4.94607 10.9666 4.94607C8.51494 4.94607 6.05337 4.92655 3.60168 4.95583C2.21766 4.97535 1.30817 5.93192 1.29828 7.29844C1.29828 12.2765 1.29828 17.2545 1.29828 22.2325C1.29828 23.804 2.22755 24.7118 3.81917 24.7118C7.3583 24.7118 10.9073 24.7118 14.4465 24.7118C16.0974 24.7118 17.0168 23.8041 17.0168 22.1642C17.0168 18.7967 17.0168 15.4292 17.0168 12.0617C17.0168 11.886 17.0168 11.7201 17.0168 11.5054C16.1369 11.5054 15.3362 11.5054 14.5255 11.5054C12.5681 11.4956 11.2731 10.2169 11.2731 8.29405C11.2731 7.2106 11.2731 6.11738 11.2731 4.98512ZM5.01536 4.13593C5.22296 4.13593 5.4009 4.13593 5.56896 4.13593C7.44727 4.13593 9.32558 4.14568 11.2039 4.12616C11.6488 4.12616 11.9651 4.24329 12.2617 4.59469C13.9917 6.59566 15.7514 8.57712 17.4814 10.5879C17.6692 10.8124 17.8076 11.154 17.8076 11.4468C17.8274 14.4727 17.8175 17.4985 17.8175 20.5244C17.8175 20.7001 17.8175 20.866 17.8175 21.032C19.5574 21.2467 20.6844 20.2804 20.6844 18.6406C20.6844 13.7016 20.6844 8.75281 20.6844 3.81382C20.6844 2.21304 19.765 1.31504 18.1339 1.31504C14.6046 1.31504 11.0853 1.31504 7.55601 1.31504C5.8161 1.30528 4.86707 2.32041 5.01536 4.13593ZM12.0936 5.64886C12.0936 6.78112 12.0244 7.79625 12.1134 8.78209C12.1925 9.69962 12.7757 10.3926 13.6852 10.5781C14.5651 10.744 15.4845 10.6952 16.394 10.744C16.4038 10.6952 16.4137 10.6464 16.4335 10.5976C15.0198 8.97731 13.5963 7.35701 12.0936 5.64886Z"/>
</mask>
<path d="M17.867 21.8714C17.8175 22.3302 17.8175 22.7206 17.7384 23.1013C17.4419 24.5068 16.2259 25.4927 14.7727 25.4927C11.0358 25.5024 7.2891 25.5024 3.55225 25.4927C1.85188 25.4829 0.507414 24.1652 0.507414 22.4766C0.497529 17.3716 0.497529 12.257 0.507414 7.15202C0.507414 5.49268 1.81234 4.20426 3.50282 4.13593C3.70053 4.12617 3.89826 4.13593 4.17506 4.13593C4.17506 3.91143 4.17506 3.70645 4.17506 3.51123C4.20472 1.87141 5.5393 0.524402 7.20013 0.514641C10.9567 0.49512 14.7134 0.49512 18.47 0.514641C20.1209 0.524402 21.4852 1.83237 21.4852 3.45267C21.5049 8.6064 21.5049 13.7699 21.4852 18.9236C21.4753 20.5439 20.1407 21.8128 18.47 21.8714C18.2723 21.8812 18.0844 21.8714 17.867 21.8714ZM11.2731 4.98512C11.1248 4.9656 11.0457 4.94607 10.9666 4.94607C8.51494 4.94607 6.05337 4.92655 3.60168 4.95583C2.21766 4.97535 1.30817 5.93192 1.29828 7.29844C1.29828 12.2765 1.29828 17.2545 1.29828 22.2325C1.29828 23.804 2.22755 24.7118 3.81917 24.7118C7.3583 24.7118 10.9073 24.7118 14.4465 24.7118C16.0974 24.7118 17.0168 23.8041 17.0168 22.1642C17.0168 18.7967 17.0168 15.4292 17.0168 12.0617C17.0168 11.886 17.0168 11.7201 17.0168 11.5054C16.1369 11.5054 15.3362 11.5054 14.5255 11.5054C12.5681 11.4956 11.2731 10.2169 11.2731 8.29405C11.2731 7.2106 11.2731 6.11738 11.2731 4.98512ZM5.01536 4.13593C5.22296 4.13593 5.4009 4.13593 5.56896 4.13593C7.44727 4.13593 9.32558 4.14568 11.2039 4.12616C11.6488 4.12616 11.9651 4.24329 12.2617 4.59469C13.9917 6.59566 15.7514 8.57712 17.4814 10.5879C17.6692 10.8124 17.8076 11.154 17.8076 11.4468C17.8274 14.4727 17.8175 17.4985 17.8175 20.5244C17.8175 20.7001 17.8175 20.866 17.8175 21.032C19.5574 21.2467 20.6844 20.2804 20.6844 18.6406C20.6844 13.7016 20.6844 8.75281 20.6844 3.81382C20.6844 2.21304 19.765 1.31504 18.1339 1.31504C14.6046 1.31504 11.0853 1.31504 7.55601 1.31504C5.8161 1.30528 4.86707 2.32041 5.01536 4.13593ZM12.0936 5.64886C12.0936 6.78112 12.0244 7.79625 12.1134 8.78209C12.1925 9.69962 12.7757 10.3926 13.6852 10.5781C14.5651 10.744 15.4845 10.6952 16.394 10.744C16.4038 10.6952 16.4137 10.6464 16.4335 10.5976C15.0198 8.97731 13.5963 7.35701 12.0936 5.64886Z" fill="white"/>
</svg>
