<svg width="24" height="24" viewBox="0 0 24 24" fill="none" xmlns="http://www.w3.org/2000/svg">
<path fill-rule="evenodd" clip-rule="evenodd" d="M23.2558 12.2605C23.2558 11.445 23.1827 10.6609 23.0468 9.9082H12.2158V14.3566H18.4049C18.1383 15.7941 17.3281 17.0121 16.1101 17.8275V20.713H19.8267C22.0013 18.7109 23.2558 15.7628 23.2558 12.2605Z" fill="white"/>
<path fill-rule="evenodd" clip-rule="evenodd" d="M12.2143 23.5006C15.3193 23.5006 17.9225 22.4708 19.8253 20.7144L16.1087 17.829C15.0789 18.519 13.7616 18.9267 12.2143 18.9267C9.21911 18.9267 6.68387 16.9037 5.77955 14.1855H1.9375V17.1651C3.82978 20.9235 7.71888 23.5006 12.2143 23.5006Z" fill="white"/>
<path fill-rule="evenodd" clip-rule="evenodd" d="M5.78106 14.1855C5.55106 13.4955 5.42038 12.7584 5.42038 12.0005C5.42038 11.2425 5.55106 10.5055 5.78106 9.81549V6.83594H1.939C1.16014 8.38844 0.71582 10.1448 0.71582 12.0005C0.71582 13.8562 1.16014 15.6125 1.939 17.1651L5.78106 14.1855Z" fill="white"/>
<path fill-rule="evenodd" clip-rule="evenodd" d="M12.2143 5.07387C13.9028 5.07387 15.4187 5.6541 16.6105 6.79365L19.9089 3.49523C17.9173 1.63955 15.3141 0.5 12.2143 0.5C7.71888 0.5 3.82978 3.07705 1.9375 6.83547L5.77955 9.81502C6.68387 7.09683 9.21911 5.07387 12.2143 5.07387Z" fill="white"/>
</svg>
