<svg width="25" height="27" viewBox="0 0 25 27" fill="none" xmlns="http://www.w3.org/2000/svg">
<path d="M19.192 0.97741C14.8088 0.140342 10.2569 0.140342 5.87369 0.97741C3.93495 1.39594 1.49045 3.73973 1.06898 5.58128C0.31034 9.18067 0.31034 12.8638 1.06898 16.4632C1.57474 18.3047 4.01924 20.6485 5.87369 21.067C5.95798 21.067 6.04227 21.1507 6.04227 21.2344V26.508C6.04227 26.7591 6.37945 26.9265 6.54804 26.6754L9.07683 24.0805C9.07683 24.0805 11.0999 21.9878 11.437 21.653C11.437 21.653 11.5213 21.5693 11.6056 21.5693C14.1344 21.653 16.7475 21.4019 19.2763 20.9833C21.2151 20.5648 23.6596 18.221 24.081 16.3795C24.8397 12.7801 24.8397 9.09697 24.081 5.49758C23.5753 3.73973 21.1308 1.39594 19.192 0.97741ZM19.2763 16.7143C18.8548 17.5514 18.3491 18.221 17.5062 18.6395C17.2533 18.7232 17.0004 18.807 16.7475 18.8907C16.4103 18.807 16.1575 18.7232 15.9046 18.6395C13.2072 17.5513 10.6784 16.0446 8.65537 13.8683C7.55956 12.6126 6.63233 11.1896 5.87369 9.68291C5.53652 8.92955 5.19935 8.2599 4.94647 7.50654C4.69359 6.83688 5.11505 6.16723 5.53652 5.66499C5.95798 5.16275 6.46374 4.82792 7.0538 4.5768C7.47526 4.32568 7.89673 4.49309 8.2339 4.82792C8.90825 5.66499 9.58259 6.50206 10.0884 7.42283C10.4255 8.00878 10.3412 8.67843 9.75118 9.09697C9.58259 9.18067 9.4983 9.26438 9.32971 9.43179C9.24542 9.5155 9.07683 9.59921 8.99254 9.76662C8.82395 10.0177 8.82395 10.2689 8.90824 10.52C9.58259 12.4452 10.847 13.952 12.7857 14.789C13.1229 14.9564 13.3758 15.0401 13.7973 15.0401C14.3873 14.9564 14.6402 14.2868 15.0617 13.952C15.4831 13.6171 15.9889 13.6171 16.4946 13.8683C16.9161 14.1194 17.3376 14.4542 17.8433 14.789C18.2648 15.1239 18.6863 15.375 19.1077 15.7098C19.3606 15.8772 19.4449 16.2957 19.2763 16.7143ZM15.736 10.4363C15.5674 10.4363 15.6517 10.4363 15.736 10.4363C15.3988 10.4363 15.3145 10.2689 15.2302 10.0177C15.2302 9.85033 15.2302 9.59921 15.1459 9.43179C15.0616 9.09697 14.8931 8.76214 14.5559 8.51102C14.3873 8.42731 14.2187 8.3436 14.0501 8.2599C13.7972 8.17619 13.6287 8.17619 13.3758 8.17619C13.1229 8.09249 13.0386 7.92507 13.0386 7.67395C13.0386 7.50654 13.2915 7.33912 13.4601 7.33912C14.8088 7.42283 15.8203 8.17619 15.9889 9.76662C15.9889 9.85033 15.9889 10.0177 15.9889 10.1014C15.9889 10.2689 15.9046 10.4363 15.736 10.4363ZM14.8931 6.75318C14.4716 6.58576 14.0501 6.41835 13.5444 6.33464C13.3758 6.33464 13.1229 6.25094 12.9543 6.25094C12.7014 6.25094 12.5329 6.08352 12.6171 5.8324C12.6171 5.58128 12.7857 5.41387 13.0386 5.49758C13.8815 5.58128 14.6402 5.7487 15.3988 6.08352C16.9161 6.83688 17.759 8.09248 18.0119 9.76662C18.0119 9.85033 18.0119 9.93404 18.0119 10.0177C18.0119 10.1852 18.0119 10.3526 18.0119 10.6037C18.0119 10.6874 18.0119 10.7711 18.0119 10.8548C17.9276 11.1896 17.3376 11.2733 17.2533 10.8548C17.2533 10.7711 17.169 10.6037 17.169 10.52C17.169 9.76662 17.0004 9.01326 16.6632 8.34361C16.1575 7.59024 15.5674 7.088 14.8931 6.75318ZM19.4449 11.7756C19.192 11.7756 19.0234 11.5245 19.0234 11.2733C19.0234 10.7711 18.9391 10.2689 18.8548 9.76662C18.5177 7.088 16.3261 4.91163 13.713 4.49309C13.2915 4.40939 12.87 4.40939 12.5329 4.32568C12.28 4.32568 11.9428 4.32568 11.8585 3.99085C11.7742 3.73973 12.0271 3.48861 12.28 3.48861C12.3643 3.48861 12.4486 3.48861 12.4486 3.48861C15.9046 3.57232 12.6171 3.48861 12.4486 3.48861C15.9889 3.57232 18.9391 5.91611 19.5292 9.43179C19.6135 10.0177 19.6978 10.6037 19.6978 11.2733C19.8664 11.5245 19.6978 11.7756 19.4449 11.7756Z" fill="white"/>
</svg>
