<svg width="26" height="18" viewBox="0 0 26 18" fill="none" xmlns="http://www.w3.org/2000/svg">
<path d="M14.1295 17.0492C5.48546 17.0492 0.555044 11.0057 0.349609 0.949219H4.67953C4.82175 8.3304 8.01388 11.4569 10.5423 12.1016V0.949219H14.6194V7.31508C17.1162 7.04111 19.7394 4.14021 20.6244 0.949219H24.7015C24.368 2.60416 23.7033 4.17112 22.7489 5.55209C21.7945 6.93307 20.5709 8.09835 19.1547 8.97504C20.7355 9.77611 22.1317 10.9099 23.2513 12.3017C24.3708 13.6935 25.1883 15.3116 25.6496 17.0492H21.1617C20.7475 15.54 19.9058 14.1889 18.742 13.1655C17.5782 12.142 16.1441 11.4916 14.6194 11.2958V17.0492H14.1295Z" fill="white"/>
</svg>
