<svg width="25" height="25" viewBox="0 0 25 25" fill="none" xmlns="http://www.w3.org/2000/svg">
<path d="M21.1159 3.87148C18.8439 1.60742 15.8146 0.349609 12.6171 0.349609C5.96951 0.349609 0.584145 5.71628 0.584145 12.3408C0.584145 14.4371 1.17317 16.5335 2.18293 18.2944L0.5 24.4996L6.89512 22.8225C8.6622 23.7449 10.5976 24.248 12.6171 24.248C19.2646 24.248 24.65 18.8814 24.65 12.2569C24.5659 9.1543 23.3878 6.13555 21.1159 3.87148ZM18.4232 16.6173C18.1707 17.2881 16.9927 17.959 16.4037 18.0428C15.8988 18.1267 15.2256 18.1267 14.5524 17.959C14.1317 17.7913 13.5427 17.6236 12.8695 17.2882C9.84025 16.0303 7.90488 13.0116 7.73659 12.76C7.5683 12.5923 6.47439 11.1668 6.47439 9.65742C6.47439 8.14805 7.23171 7.47721 7.48415 7.1418C7.73659 6.80638 8.07317 6.80638 8.32561 6.80638C8.4939 6.80638 8.74634 6.80638 8.91463 6.80638C9.08292 6.80638 9.33537 6.72253 9.5878 7.3095C9.84024 7.89648 10.4293 9.40586 10.5134 9.48971C10.5976 9.65742 10.5976 9.82513 10.5134 9.99284C10.4293 10.1605 10.3451 10.3283 10.1768 10.496C10.0085 10.6637 9.84024 10.9152 9.75609 10.9991C9.5878 11.1668 9.41951 11.3345 9.5878 11.5861C9.7561 11.9215 10.3451 12.8439 11.2707 13.6824C12.4488 14.6887 13.3744 15.0241 13.711 15.1918C14.0476 15.3595 14.2159 15.2757 14.3841 15.1079C14.5524 14.9402 15.1415 14.2694 15.3098 13.934C15.4781 13.5986 15.7305 13.6824 15.9829 13.7663C16.2354 13.8501 17.75 14.6048 18.0024 14.7725C18.339 14.9402 18.5073 15.0241 18.5915 15.1079C18.6756 15.3595 18.6756 15.9465 18.4232 16.6173Z" fill="white"/>
</svg>
